<?xml version="1.0" encoding="utf-8"?>
<!-- Generator: Adobe Illustrator 21.1.0, SVG Export Plug-In . SVG Version: 6.00 Build 0)  -->
<svg version="1.1" id="Layer_1" xmlns="http://www.w3.org/2000/svg" xmlns:xlink="http://www.w3.org/1999/xlink" x="0px" y="0px"
	 viewBox="0 0 197.2 69.8" style="enable-background:new 0 0 197.2 69.8;" xml:space="preserve">
<style type="text/css">
	.st0{fill:none;}
	.st1{fill:none;stroke:#3098DC;}
	.st2{fill:#3098DC;stroke:#3098DC;stroke-width:0.5;}
	.st3{fill:#D4F2FC;stroke:#3098DC;}
	.st4{fill:#3098DC;}
</style>
<path class="st0" d="M0,0"/>
<path class="st1" d="M99.3,32l6.1,5.3l-6.1,5.3 M92,37.2h13.5"/>
<path class="st1" d="M0,0"/>
<path class="st1" d="M0,0"/>
<path class="st1" d="M0,0"/>
<g>
	<path class="st1" d="M68,69H4.7c-2,0-3.7-1.7-3.7-3.7V13.7c0-2,1.7-3.7,3.7-3.7H68c2,0,3.7,1.7,3.7,3.7v51.5C71.6,67.3,70,69,68,69
		z"/>
	<path class="st1" d="M68,17.5H4.7c-2,0-3.7-1.7-3.7-3.7C1,11.7,2.7,10,4.7,10H68c2,0,3.7,1.7,3.7,3.7 M68,17.5c2,0,3.7,1.7,3.7,3.7
		 M71.6,33.6h14.9v-3.7H71.6V33.6z M71.6,48.7h14.9V33.6H71.6V48.7z"/>
</g>
<path class="st1" d="M51.5,43c0-8.6-6.9-15.6-15.4-15.6s-15.4,7-15.4,15.6s6.9,15.6,15.4,15.6S51.5,51.6,51.5,43z"/>
<g>
	<g>
		<path class="st2" d="M34.4,40.3h3.8c0.2,0,0.3,0,0.4,0.1c0.1,0.1,0.1,0.2,0.1,0.3s0,0.2-0.1,0.2C38.5,41,38.4,41,38.2,41h-3.8v4.6
			c0,0.4,0.2,0.7,0.5,1s0.8,0.4,1.4,0.4c0.5,0,1-0.1,1.5-0.2c0.5-0.1,1-0.3,1.3-0.5c0.1-0.1,0.2-0.1,0.3-0.1s0.2,0,0.2,0.1
			c0.1,0.1,0.1,0.2,0.1,0.2c0,0.1,0,0.2-0.1,0.2c-0.2,0.2-0.6,0.4-1.3,0.6c-0.7,0.2-1.3,0.3-2,0.3c-0.8,0-1.5-0.2-1.9-0.6
			c-0.5-0.4-0.7-0.9-0.7-1.5V41h-1.3c-0.2,0-0.3,0-0.4-0.1c0-0.1,0-0.2,0-0.3c0-0.1,0-0.2,0.1-0.2c0.1-0.1,0.2-0.1,0.4-0.1h1.3v-2.1
			c0-0.2,0-0.3,0.1-0.4c0.1-0.1,0.1-0.1,0.2-0.1c0.1,0,0.2,0,0.3,0.1s0.1,0.2,0.1,0.4L34.4,40.3L34.4,40.3z"/>
	</g>
	<g>
		<path class="st2" d="M44.4,44.4c-0.7,3.9-4.2,6.9-8.3,6.9c-4.7,0-8.5-3.8-8.5-8.5s3.8-8.5,8.5-8.5c3.1,0,5.8,1.7,7.3,4.2h0.8
			c-1.5-2.9-4.6-4.9-8.1-4.9c-5.1,0-9.2,4.1-9.2,9.2S31,52,36.1,52c4.5,0,8.3-3.3,9.1-7.7h-0.8V44.4z"/>
	</g>
	<g>
		<path class="st2" d="M36,30.6c-6.8,0-12.3,5.5-12.3,12.2c0,1.6,0.3,3.2,0.9,4.6l0.6-0.5c-0.5-1.3-0.7-2.6-0.7-4
			c0-6.3,5.2-11.5,11.5-11.5s11.5,5.2,11.5,11.5c0,6.4-5.2,11.5-11.5,11.5c-0.7,0-1.3-0.1-1.9-0.2l-0.7,0.6c0.8,0.2,1.7,0.3,2.6,0.3
			c6.8,0,12.2-5.5,12.2-12.3C48.2,36.1,42.8,30.6,36,30.6z"/>
	</g>
</g>
<path class="st1" d="M140.2,61.6v3.1h24.4v-3.1h25.9V12.8c0-1.7-1.4-3.1-3.1-3.1h-70.2c-1.7,0-3.1,1.4-3.1,3.1v48.8H140.2z"/>
<path class="st3" d="M164.6,61.6v3.1h-24.4v-3.1h-32.1v4.6c0,1.7,1.4,3.1,3.1,3.1h82.4c1.7,0,3.1-1.4,3.1-3.1v-4.6H164.6z"/>
<polygon class="st1" points="117.3,58.6 187.5,58.6 187.5,12.8 117.3,12.8 "/>
<path class="st3" d="M71.7,21.2c0-2-1.7-3.7-3.7-3.7H4.7c-2,0-3.7-1.7-3.7-3.7C1,11.7,2.7,10,4.7,10H68c2,0,3.7,1.7,3.7,3.7V21.2z"
	/>
<g>
	<path class="st4" d="M158.7,27.2l-4.9-4.9c-0.2-0.2-0.6-0.2-0.9,0l-8.1,8.1l-8.1-8.1c-0.2-0.2-0.6-0.2-0.9,0l-4.9,4.9
		c-0.1,0.1-0.2,0.3-0.2,0.4s0.1,0.3,0.2,0.4l8.1,8.1l-8.1,8.1c-0.2,0.2-0.2,0.6,0,0.9l4.9,4.9c0.2,0.2,0.6,0.2,0.9,0l8.1-8.1
		l8.1,8.1c0.1,0.1,0.3,0.2,0.4,0.2c0.2,0,0.3-0.1,0.4-0.2l4.9-4.9c0.2-0.2,0.2-0.6,0-0.9l-8.1-8.1l8.1-8.1
		C158.9,27.9,158.9,27.5,158.7,27.2z M149.3,35.8C149.3,35.8,149.3,35.8,149.3,35.8c-0.3,0.3-0.3,0.7,0,0.9c0,0,0,0,0,0l8.1,8.1
		l-4,4l-8.1-8.1c0,0-0.1-0.1-0.2-0.1c-0.3-0.1-0.6-0.1-0.7,0.1l-8.1,8.1l-4-4l8.1-8.1c0.2-0.2,0.2-0.6,0-0.9l-8.1-8.1l4-4l8.1,8.1
		c0,0,0,0,0,0c0.2,0.2,0.6,0.2,0.9,0c0,0,0,0,0,0l8.1-8.1l4,4L149.3,35.8z"/>
	<path class="st4" d="M175.8,27.2l-4.9-4.9c-0.2-0.2-0.6-0.2-0.9,0l-8.1,8.1l-8.1-8.1c-0.2-0.2-0.6-0.2-0.9,0l-4.9,4.9
		c-0.1,0.1-0.2,0.3-0.2,0.4s0.1,0.3,0.2,0.4l8.1,8.1l-8.1,8.1c-0.2,0.2-0.2,0.6,0,0.9l4.9,4.9c0.2,0.2,0.6,0.2,0.9,0l8.1-8.1
		l8.1,8.1c0.1,0.1,0.3,0.2,0.4,0.2c0.2,0,0.3-0.1,0.4-0.2l4.9-4.9c0.2-0.2,0.2-0.6,0-0.9l-8.1-8.1l8.1-8.1
		C176,27.9,176,27.5,175.8,27.2z M166.4,35.8C166.4,35.8,166.4,35.8,166.4,35.8c-0.3,0.3-0.3,0.7,0,0.9c0,0,0,0,0,0l8.1,8.1l-4,4
		l-8.1-8.1c0,0-0.1-0.1-0.2-0.1c-0.3-0.1-0.6-0.1-0.7,0.1l-8.1,8.1l-4-4l8.1-8.1c0.2-0.2,0.2-0.6,0-0.9l-8.1-8.1l4-4l8.1,8.1
		c0,0,0,0,0,0c0.2,0.2,0.6,0.2,0.9,0c0,0,0,0,0,0l8.1-8.1l4,4L166.4,35.8z"/>
</g>
</svg>
