<?xml version="1.0" encoding="utf-8"?>
<!-- Generator: Adobe Illustrator 21.1.0, SVG Export Plug-In . SVG Version: 6.00 Build 0)  -->
<svg version="1.1" id="Layer_1" xmlns="http://www.w3.org/2000/svg" xmlns:xlink="http://www.w3.org/1999/xlink" x="0px" y="0px"
	 viewBox="0 0 116.6 87.5" style="enable-background:new 0 0 116.6 87.5;" xml:space="preserve">
<style type="text/css">
	.st0{fill:none;}
	.st1{fill:#D9F0FF;}
	.st2{fill:none;stroke:#3098DC;}
	.st3{fill:#FEFEFE;}
	.st4{fill:#FFFFFF;stroke:#3098DC;}
	.st5{fill:#D9F0FF;stroke:#3098DC;}
	.st6{enable-background:new    ;}
	.st7{fill:#3098DC;}
	.st8{fill:#FFFFFF;}
</style>
<g>
	<path class="st0" d="M0,3"/>
	<path class="st0" d="M0,3"/>
	<path class="st1" d="M105.7,87H2.3C1.6,87,1,86.5,1,85.8v-4.5C1,80.6,1.6,80,2.3,80h103.5c0.7,0,1.3,0.6,1.3,1.2v4.5
		C107,86.5,106.4,87,105.7,87"/>
	<path class="st2" d="M105.7,87H2.3C1.6,87,1,86.5,1,85.8v-4.5C1,80.6,1.6,80,2.3,80h103.5c0.7,0,1.3,0.6,1.3,1.2v4.5
		C107,86.5,106.4,87,105.7,87z"/>
	<path class="st3" d="M11,75h86V14H11V75z"/>
	<g transform="translate(1 1)">
		<path class="st2" d="M10,74h86V13H10V74z"/>
		<path class="st4" d="M16.5,17.5h73c1.1,0,2,0.9,2,2v49c0,1.1-0.9,2-2,2h-73c-1.1,0-2-0.9-2-2v-49C14.5,18.4,15.4,17.5,16.5,17.5z"
			/>
		<path class="st4" d="M0,3"/>
		<g>
			<circle class="st5" cx="18" cy="21" r="1"/>
			<circle class="st5" cx="22.8" cy="21" r="1"/>
			<circle class="st5" cx="27.5" cy="21" r="1"/>
		</g>
	</g>
	<path class="st5" d="M0,3"/>
	<path class="st5" d="M0,3"/>
	<g class="st6">
		<path class="st7" d="M33.3,45.8h3.1V47h-4.6v-7.1h1.5V45.8z"/>
		<path class="st7" d="M42.7,43.6c0,0.7-0.1,1.3-0.4,1.8s-0.6,0.9-1.1,1.2s-1,0.4-1.6,0.4c-0.6,0-1.1-0.1-1.6-0.4s-0.8-0.7-1.1-1.2
			c-0.3-0.5-0.4-1.1-0.4-1.8v-0.4c0-0.7,0.1-1.3,0.4-1.8c0.3-0.5,0.6-0.9,1.1-1.2c0.5-0.3,1-0.4,1.6-0.4s1.1,0.1,1.6,0.4
			c0.5,0.3,0.8,0.7,1.1,1.2c0.3,0.5,0.4,1.1,0.4,1.8V43.6z M41.3,43.3c0-0.7-0.1-1.3-0.4-1.7S40.2,41,39.7,41
			c-0.5,0-0.9,0.2-1.1,0.6c-0.3,0.4-0.4,0.9-0.4,1.7v0.3c0,0.7,0.1,1.3,0.4,1.7s0.7,0.6,1.2,0.6c0.5,0,0.9-0.2,1.1-0.6
			c0.3-0.4,0.4-0.9,0.4-1.7V43.3z"/>
		<path class="st7" d="M49.4,46.1c-0.3,0.3-0.6,0.6-1.1,0.7c-0.5,0.2-1,0.3-1.6,0.3c-0.6,0-1.2-0.1-1.6-0.4
			c-0.5-0.3-0.8-0.7-1.1-1.2s-0.4-1.1-0.4-1.8v-0.5c0-0.7,0.1-1.3,0.4-1.8c0.2-0.5,0.6-0.9,1-1.2c0.5-0.3,1-0.4,1.6-0.4
			c0.8,0,1.5,0.2,2,0.6c0.5,0.4,0.8,1,0.8,1.8H48c-0.1-0.4-0.2-0.7-0.4-0.9S47,41,46.6,41c-0.5,0-0.9,0.2-1.1,0.6s-0.4,0.9-0.4,1.7
			v0.5c0,0.7,0.1,1.3,0.4,1.7s0.7,0.6,1.2,0.6c0.6,0,0.9-0.1,1.2-0.4v-1.2h-1.3v-1.1h2.8V46.1z"/>
		<path class="st7" d="M52.2,47h-1.5v-7.1h1.5V47z"/>
		<path class="st7" d="M59.3,47h-1.5L55,42.3V47h-1.5v-7.1H55l2.9,4.7v-4.7h1.5V47z"/>
		<path class="st7" d="M68.6,45l1-5.1H71L69.5,47H68l-1.2-4.8L65.7,47h-1.5l-1.6-7.1h1.5l1,5l1.2-5h1.2L68.6,45z"/>
		<path class="st7" d="M73.4,47h-1.5v-7.1h1.5V47z"/>
		<path class="st7" d="M80,41.1h-2.2V47h-1.5v-5.9h-2.1v-1.2H80V41.1z"/>
		<path class="st7" d="M86.6,47h-1.5v-3h-2.9v3h-1.5v-7.1h1.5v2.9h2.9v-2.9h1.5V47z"/>
	</g>
	<g class="st6">
		<path class="st7" d="M23.8,57.5V60h-1.5v-7.1h2.8c0.5,0,1,0.1,1.4,0.3s0.7,0.5,0.9,0.8c0.2,0.4,0.3,0.8,0.3,1.2
			c0,0.7-0.2,1.2-0.7,1.6c-0.5,0.4-1.1,0.6-2,0.6H23.8z M23.8,56.3h1.3c0.4,0,0.7-0.1,0.9-0.3s0.3-0.4,0.3-0.8
			c0-0.3-0.1-0.6-0.3-0.8s-0.5-0.3-0.8-0.3h-1.3V56.3z"/>
		<path class="st7" d="M31.9,58.6h-2.6L28.8,60h-1.6l2.6-7.1h1.4l2.7,7.1h-1.6L31.9,58.6z M29.7,57.4h1.8l-0.9-2.7L29.7,57.4z"/>
		<path class="st7" d="M40.4,60h-1.5l-2.9-4.7V60h-1.5v-7.1h1.5l2.9,4.7v-4.7h1.5V60z"/>
		<path class="st7" d="M46.9,54.1h-2.2V60h-1.5v-5.9h-2.1v-1.2h5.8V54.1z"/>
		<path class="st7" d="M53.4,56.6c0,0.7-0.1,1.3-0.4,1.8s-0.6,0.9-1.1,1.2s-1,0.4-1.6,0.4c-0.6,0-1.1-0.1-1.6-0.4S48,59,47.7,58.5
			c-0.3-0.5-0.4-1.1-0.4-1.8v-0.4c0-0.7,0.1-1.3,0.4-1.8c0.3-0.5,0.6-0.9,1.1-1.2c0.5-0.3,1-0.4,1.6-0.4s1.1,0.1,1.6,0.4
			c0.5,0.3,0.8,0.7,1.1,1.2c0.3,0.5,0.4,1.1,0.4,1.8V56.6z M51.9,56.3c0-0.7-0.1-1.3-0.4-1.7S50.9,54,50.4,54
			c-0.5,0-0.9,0.2-1.1,0.6c-0.3,0.4-0.4,0.9-0.4,1.7v0.3c0,0.7,0.1,1.3,0.4,1.7s0.7,0.6,1.2,0.6c0.5,0,0.9-0.2,1.1-0.6
			c0.3-0.4,0.4-0.9,0.4-1.7V56.3z"/>
		<path class="st7" d="M60.1,59.1c-0.3,0.3-0.6,0.6-1.1,0.7c-0.5,0.2-1,0.3-1.6,0.3c-0.6,0-1.2-0.1-1.6-0.4
			c-0.5-0.3-0.8-0.7-1.1-1.2s-0.4-1.1-0.4-1.8v-0.5c0-0.7,0.1-1.3,0.4-1.8c0.2-0.5,0.6-0.9,1-1.2c0.5-0.3,1-0.4,1.6-0.4
			c0.8,0,1.5,0.2,2,0.6c0.5,0.4,0.8,1,0.8,1.8h-1.4c-0.1-0.4-0.2-0.7-0.4-0.9C58,54.1,57.7,54,57.3,54c-0.5,0-0.9,0.2-1.1,0.6
			c-0.3,0.4-0.4,0.9-0.4,1.7v0.5c0,0.7,0.1,1.3,0.4,1.7s0.7,0.6,1.2,0.6c0.5,0,0.9-0.1,1.2-0.4v-1.2h-1.3v-1.1h2.8V59.1z"/>
		<path class="st7" d="M63.9,57.4h-1.2V60h-1.5v-7.1h2.6c0.8,0,1.5,0.2,1.9,0.6c0.5,0.4,0.7,0.9,0.7,1.6c0,0.5-0.1,0.9-0.3,1.2
			c-0.2,0.3-0.5,0.6-1,0.8l1.5,2.9V60h-1.6L63.9,57.4z M62.8,56.2h1.2c0.4,0,0.7-0.1,0.9-0.3c0.2-0.2,0.3-0.4,0.3-0.8
			c0-0.3-0.1-0.6-0.3-0.8s-0.5-0.3-0.9-0.3h-1.2V56.2z"/>
		<path class="st7" d="M71.7,58.6h-2.6L68.6,60h-1.6l2.6-7.1h1.4l2.7,7.1h-1.6L71.7,58.6z M69.5,57.4h1.8l-0.9-2.7L69.5,57.4z"/>
		<path class="st7" d="M75.9,57.5V60h-1.5v-7.1h2.8c0.5,0,1,0.1,1.4,0.3s0.7,0.5,0.9,0.8c0.2,0.4,0.3,0.8,0.3,1.2
			c0,0.7-0.2,1.2-0.7,1.6c-0.5,0.4-1.1,0.6-2,0.6H75.9z M75.9,56.3h1.3c0.4,0,0.7-0.1,0.9-0.3c0.2-0.2,0.3-0.4,0.3-0.8
			c0-0.3-0.1-0.6-0.3-0.8s-0.5-0.3-0.8-0.3h-1.3V56.3z"/>
		<path class="st7" d="M86.6,60h-1.5v-3h-2.9v3h-1.5v-7.1h1.5v2.9h2.9v-2.9h1.5V60z"/>
	</g>
</g>
<path class="st2" d="M6.1,80.3V12.1c0-1.3,1.1-2.4,2.4-2.4h91c1.3,0,2.4,1.1,2.4,2.4v68.1"/>
<line class="st2" x1="15.5" y1="24.9" x2="92.5" y2="24.9"/>
<g>
	<g>
		<path class="st7" d="M91.2,13.9l2.8-2.8l-0.8-0.8L90,13.7c-0.3,0.3-0.3,0.7,0,0.9l4.1,4.1l0.9-0.9L91.2,13.9z M98.8,6.3l0.5-0.5
			c0.3-0.1,0.3-0.5,0.1-0.8l-4.9-4.9c-0.2-0.2-0.6-0.2-0.9,0l-4.9,4.9l-3.2,3.2l-8.1-8.1c-0.2-0.2-0.6-0.2-0.9,0l-4.9,4.9
			c-0.1,0.1-0.2,0.3-0.2,0.4c0,0.1,0.1,0.3,0.2,0.4l8.1,8.1l-8.1,8.1c-0.2,0.2-0.2,0.6,0,0.9l4.9,4.9c0.2,0.2,0.6,0.2,0.9,0l8.1-8.1
			l3.2,3.2l4.9,4.9c0.1,0.1,0.3,0.2,0.4,0.2c0.1,0,0.2,0,0.3-0.1c0,0,0.1-0.1,0.1-0.1l4.9-4.9c0.2-0.2,0.2-0.6,0-0.9L99,21.7
			l-4.9,4.9L86,18.6c0,0-0.1-0.1-0.2-0.1c-0.3-0.1-0.6-0.1-0.7,0.1L77,26.7l-4-4l8.1-8.1c0.2-0.2,0.2-0.6,0-0.9L73,5.6l4-4l8.1,8.1
			c0.1,0.1,0.2,0.2,0.4,0.2c0.2,0,0.3-0.1,0.5-0.2l8.1-8.1L98.8,6.3z M94.8,10.3l-0.8-0.8L90,13.7c-0.3,0.3-0.3,0.7,0,0.9l4.1,4.1
			l0.9-0.9l-3.8-3.8L94.8,10.3z M91.2,13.9l2.8-2.8l-0.8-0.8L90,13.7c-0.3,0.3-0.3,0.7,0,0.9l4.1,4.1l0.9-0.9L91.2,13.9z"/>
		<path class="st7" d="M98.2,13.7l-3.4-3.3l-0.8-0.8l-0.8,0.8l3.5,3.5l-3.7,3.7l1,1l0.9-0.9l3.2-3.2C98.4,14.4,98.4,13.9,98.2,13.7z
			 M116.5,5.1l-4.9-4.9c-0.2-0.2-0.6-0.2-0.9,0l-8.1,8.1l-8.1-8.1c-0.2-0.2-0.6-0.2-0.9,0l-4.9,4.9c-0.1,0.1-0.2,0.3-0.2,0.4
			c0,0.1,0.1,0.3,0.2,0.4l0.5,0.5l4.8-4.8l4.8,4.8l3.4,3.3c0.1,0.1,0.2,0.2,0.4,0.2c0.2,0,0.3-0.1,0.5-0.2l8.1-8.1l4,4l-8.1,8.1
			c-0.3,0.3-0.3,0.7,0,0.9l8.1,8.1l-4,4l-8.1-8.1c0,0-0.1-0.1-0.2-0.1c-0.3-0.1-0.6-0.1-0.7,0.1L99,21.7l-4.9,4.9l-5-5l-0.4,0.4
			c-0.2,0.2-0.2,0.6,0,0.9l4.9,4.9c0.2,0.2,0.4,0.2,0.7,0.1c0.1,0,0.1-0.1,0.2-0.1l8.1-8.1l8.1,8.1c0.1,0.1,0.3,0.2,0.4,0.2
			c0.2,0,0.3-0.1,0.4-0.2l4.9-4.9c0.2-0.2,0.2-0.6,0-0.9l-8.1-8.1l8.1-8.1C116.7,5.7,116.7,5.4,116.5,5.1z M93.1,17.7l1,1l0.9-0.9
			l3.2-3.2c0.2-0.2,0.2-0.6,0-0.9l-3.4-3.3l-0.8-0.8l-0.8,0.8l3.5,3.5L93.1,17.7z M98.2,13.7l-3.4-3.3l-0.8-0.8l-0.8,0.8l3.5,3.5
			L94,16.7l1,1l3.2-3.2C98.4,14.4,98.4,13.9,98.2,13.7z"/>
	</g>
	<rect x="91.1" y="5.1" transform="matrix(0.7071 -0.7071 0.7071 0.7071 21.206 67.1459)" class="st7" width="1.2" height="5.7"/>
	<rect x="88.8" y="19.4" transform="matrix(0.7071 -0.7071 0.7071 0.7071 12.575 70.6588)" class="st7" width="5.7" height="1.4"/>
	<path class="st8" d="M93.1,17.7l-4,4L86,18.6c0,0-0.1-0.1-0.2-0.1c-0.3-0.1-0.6-0.1-0.7,0.1L77,26.7l-4-4l8.1-8.1
		c0.2-0.2,0.2-0.6,0-0.9L73,5.6l4-4l8.1,8.1c0.1,0.1,0.2,0.2,0.4,0.2c0.2,0,0.3-0.1,0.5-0.2l3.2-3.2l4,4L90,13.7
		c-0.3,0.3-0.3,0.7,0,0.9L93.1,17.7z"/>
	<rect x="91.3" y="19.8" transform="matrix(0.7071 -0.7071 0.7071 0.7071 11.5395 73.1588)" class="st8" width="5.7" height="5.7"/>
	<rect x="91.3" y="2.7" transform="matrix(0.7071 -0.7071 0.7071 0.7071 23.631 68.1504)" class="st8" width="5.7" height="5.7"/>
	<rect x="93.6" y="7.4" transform="matrix(0.7071 -0.7071 0.7071 0.7071 22.6472 70.5254)" class="st7" width="5.7" height="1.1"/>
	<rect x="91.3" y="2.7" transform="matrix(0.7071 -0.7071 0.7071 0.7071 23.631 68.1504)" class="st8" width="5.7" height="5.7"/>
	<rect x="95.9" y="17.4" transform="matrix(0.7071 -0.7071 0.7071 0.7071 13.9895 74.1737)" class="st7" width="1.3" height="5.7"/>
	<rect x="91.3" y="19.8" transform="matrix(0.7071 -0.7071 0.7071 0.7071 11.5395 73.1588)" class="st8" width="5.7" height="5.7"/>
	<path class="st8" d="M107.1,14.6l8.1,8.1l-4,4l-8.1-8.1c0,0-0.1-0.1-0.2-0.1c-0.3-0.1-0.6-0.1-0.7,0.1L99,21.7l-4-4l3.2-3.2
		c0.2-0.2,0.2-0.6,0-0.9l-3.4-3.3l4-4l3.4,3.3c0.1,0.1,0.2,0.2,0.4,0.2c0.2,0,0.3-0.1,0.5-0.2l8.1-8.1l4,4l-8.1,8.1
		C106.8,13.9,106.8,14.4,107.1,14.6z"/>
</g>
</svg>
