<?xml version="1.0" encoding="utf-8"?>
<!-- Generator: Adobe Illustrator 21.1.0, SVG Export Plug-In . SVG Version: 6.00 Build 0)  -->
<svg version="1.1" id="Layer_1" xmlns="http://www.w3.org/2000/svg" xmlns:xlink="http://www.w3.org/1999/xlink" x="0px" y="0px"
	 viewBox="0 0 156 97" style="enable-background:new 0 0 156 97;" xml:space="preserve">
<style type="text/css">
	.st0{fill:#122240;}
</style>
<title>logo-final</title>
<g id="Layer_2">
	<g id="Layer_1-2">
		<path class="st0" d="M96.4,17.5L79.5,0.6c-0.8-0.8-2.1-0.8-3,0c0,0,0,0,0,0l-28,28l-28-28c-0.8-0.8-2.1-0.8-3,0c0,0,0,0,0,0
			L0.6,17.5c-0.8,0.8-0.8,2.2,0,3c0,0,0,0,0,0l28,28l-28,28c-0.8,0.8-0.8,2.2,0,3c0,0,0,0,0,0l16.9,16.9c0.8,0.8,2.1,0.8,3,0l28-28
			l28,28c0.8,0.8,2.2,0.8,3,0c0,0,0,0,0,0l16.9-16.9c0.8-0.8,0.8-2.2,0-3c0,0,0,0,0,0l-28-28l28-28C97.2,19.6,97.2,18.3,96.4,17.5
			C96.4,17.5,96.4,17.5,96.4,17.5z M64,46.9c0,0-0.1,0.1-0.1,0.1c-0.8,0.8-0.8,2.2,0,3c0,0,0,0,0,0l0,0l28,28L78,91.9l-28-28
			c-0.2-0.2-0.4-0.3-0.6-0.4c-0.9-0.4-1.9-0.2-2.5,0.5L19,91.9L5.1,78l28-28c0.8-0.8,0.8-2.2,0-3c0,0,0,0,0,0l-28-28L19,5.1l28,28
			l0,0c0.8,0.8,2.2,0.8,3,0c0,0,0,0,0,0c0,0,0.1-0.1,0.1-0.1L78,5.1L91.9,19L64,46.9z"/>
		<path class="st0" d="M155.4,17.5L138.5,0.6c-0.8-0.8-2.1-0.8-3,0c0,0,0,0,0,0l-28,28l-28-28c-0.8-0.8-2.1-0.8-3,0c0,0,0,0,0,0
			L59.6,17.5c-0.8,0.8-0.8,2.2,0,3c0,0,0,0,0,0l28,28l-28,28c-0.8,0.8-0.8,2.2,0,3c0,0,0,0,0,0l16.9,16.9c0.8,0.8,2.1,0.8,3,0l28-28
			l28,28c0.8,0.8,2.2,0.8,3,0c0,0,0,0,0,0l16.9-16.9c0.8-0.8,0.8-2.2,0-3c0,0,0,0,0,0l-28-28l28-28
			C156.2,19.6,156.2,18.3,155.4,17.5C155.4,17.5,155.4,17.5,155.4,17.5z M123,46.9c0,0-0.1,0.1-0.1,0.1c-0.8,0.8-0.8,2.2,0,3
			c0,0,0,0,0,0l0,0l28,28L137,91.9l-28-28c-0.2-0.2-0.4-0.3-0.6-0.4c-0.9-0.4-1.9-0.2-2.5,0.5L78,91.9L64.1,78l28-28
			c0.8-0.8,0.8-2.2,0-3c0,0,0,0,0,0l-28-28L78,5.1l28,28l0,0c0.8,0.8,2.2,0.8,3,0c0,0,0,0,0,0c0,0,0.1-0.1,0.1-0.1L137,5.1L150.9,19
			L123,46.9z"/>
	</g>
</g>
</svg>
