<svg width="250" height="34" viewBox="0 0 250 34" fill="none" xmlns="http://www.w3.org/2000/svg">
<g clip-path="url(#clip0)">
<path d="M31.1245 5.64814L25.6768 0.200429C25.6137 0.136917 25.5388 0.0865088 25.4562 0.0521094C25.3735 0.0177101 25.2849 0 25.1955 0C25.106 0 25.0174 0.0177101 24.9348 0.0521094C24.8522 0.0865088 24.7772 0.136917 24.7141 0.200429L15.6617 9.25228L6.6098 0.200429C6.54676 0.136917 6.47178 0.0865088 6.38917 0.0521094C6.30657 0.0177101 6.21797 0 6.12848 0C6.039 0 5.9504 0.0177101 5.86779 0.0521094C5.78519 0.0865088 5.7102 0.136917 5.64717 0.200429L0.199782 5.64814C0.136531 5.71135 0.086355 5.78641 0.0521217 5.86902C0.0178883 5.95164 0.00026821 6.04019 0.00026821 6.12961C0.00026821 6.21904 0.0178883 6.30759 0.0521217 6.3902C0.086355 6.47282 0.136531 6.54788 0.199782 6.61109L9.25163 15.6623L0.199782 24.7148C0.136454 24.778 0.0862099 24.853 0.0519281 24.9356C0.0176462 25.0182 0 25.1068 0 25.1963C0 25.2857 0.0176462 25.3743 0.0519281 25.4569C0.0862099 25.5395 0.136454 25.6146 0.199782 25.6777L5.64749 31.1255C5.77755 31.2485 5.94978 31.317 6.12881 31.317C6.30783 31.317 6.48006 31.2485 6.61012 31.1255L15.6617 22.0736L24.7141 31.1255C24.7773 31.1887 24.8524 31.2389 24.935 31.2731C25.0175 31.3073 25.1061 31.3249 25.1955 31.3249C25.2849 31.3249 25.3734 31.3073 25.456 31.2731C25.5386 31.2389 25.6136 31.1887 25.6768 31.1255L31.1245 25.6777C31.1878 25.6146 31.2381 25.5395 31.2723 25.4569C31.3066 25.3743 31.3243 25.2857 31.3243 25.1963C31.3243 25.1068 31.3066 25.0182 31.2723 24.9356C31.2381 24.853 31.1878 24.778 31.1245 24.7148L22.0726 15.6623L31.1245 6.61077C31.1878 6.5476 31.238 6.47258 31.2722 6.38999C31.3065 6.3074 31.3241 6.21886 31.3241 6.12945C31.3241 6.04004 31.3065 5.95151 31.2722 5.86892C31.238 5.78633 31.1878 5.7113 31.1245 5.64814ZM20.6644 15.1456C20.6515 15.1563 20.6392 15.1679 20.6269 15.1802C20.5637 15.2434 20.5136 15.3184 20.4794 15.4009C20.4452 15.4835 20.4276 15.572 20.4276 15.6613C20.4276 15.7507 20.4452 15.8392 20.4794 15.9217C20.5136 16.0043 20.5637 16.0793 20.6269 16.1425L20.6311 16.1464L29.6804 25.1963L25.1956 29.681L16.1496 20.6353C16.0963 20.5801 16.0339 20.5345 15.9652 20.5003C15.8304 20.4329 15.6771 20.4122 15.5293 20.4414C15.3814 20.4706 15.2475 20.5482 15.1485 20.6618L6.12865 29.681L1.64357 25.1963L10.6945 16.1431C10.7578 16.08 10.808 16.0049 10.8423 15.9223C10.8766 15.8397 10.8942 15.7511 10.8942 15.6616C10.8942 15.5722 10.8766 15.4836 10.8423 15.401C10.808 15.3184 10.7578 15.2433 10.6945 15.1802L1.64357 6.12929L6.12865 1.64454L15.1773 10.6948L15.1815 10.6986C15.2446 10.7618 15.3197 10.812 15.4022 10.8462C15.4848 10.8804 15.5733 10.898 15.6626 10.898C15.752 10.898 15.8405 10.8804 15.923 10.8462C16.0056 10.812 16.0806 10.7618 16.1438 10.6986C16.1557 10.6864 16.1673 10.6741 16.1783 10.6612L25.1956 1.64454L29.6804 6.12929L20.6644 15.1456Z" fill="#122240"/>
<path d="M50.1773 5.64814L44.7296 0.200429C44.6665 0.136917 44.5915 0.0865088 44.5089 0.0521094C44.4263 0.0177101 44.3377 0 44.2482 0C44.1588 0 44.0702 0.0177101 43.9875 0.0521094C43.9049 0.0865088 43.83 0.136917 43.7669 0.200429L34.7144 9.25228L25.6626 0.200429C25.5996 0.136917 25.5246 0.0865088 25.442 0.0521094C25.3594 0.0177101 25.2708 0 25.1813 0C25.0918 0 25.0032 0.0177101 24.9206 0.0521094C24.838 0.0865088 24.763 0.136917 24.7 0.200429L19.2522 5.64814C19.189 5.71135 19.1388 5.78641 19.1046 5.86902C19.0704 5.95164 19.0527 6.04019 19.0527 6.12961C19.0527 6.21904 19.0704 6.30759 19.1046 6.3902C19.1388 6.47282 19.189 6.54788 19.2522 6.61109L28.3044 15.6623L19.2526 24.7148C19.1892 24.778 19.139 24.853 19.1047 24.9356C19.0704 25.0182 19.0528 25.1068 19.0528 25.1963C19.0528 25.2857 19.0704 25.3743 19.1047 25.4569C19.139 25.5395 19.1892 25.6146 19.2526 25.6777L24.7003 31.1255C24.8303 31.2485 25.0026 31.317 25.1816 31.317C25.3606 31.317 25.5328 31.2485 25.6629 31.1255L34.7144 22.0736L43.7663 31.1255C43.8295 31.1887 43.9045 31.2389 43.9871 31.2731C44.0697 31.3073 44.1582 31.3249 44.2476 31.3249C44.337 31.3249 44.4255 31.3073 44.5081 31.2731C44.5907 31.2389 44.6657 31.1887 44.7289 31.1255L50.1766 25.6777C50.2399 25.6146 50.2902 25.5395 50.3245 25.4569C50.3587 25.3743 50.3764 25.2857 50.3764 25.1963C50.3764 25.1068 50.3587 25.0182 50.3245 24.9356C50.2902 24.853 50.2399 24.778 50.1766 24.7148L41.1254 15.6623L50.1773 6.61077C50.2405 6.5476 50.2907 6.47258 50.325 6.38999C50.3592 6.3074 50.3769 6.21886 50.3769 6.12945C50.3769 6.04004 50.3592 5.95151 50.325 5.86892C50.2907 5.78633 50.2405 5.7113 50.1773 5.64814ZM39.7171 15.1456C39.7042 15.1563 39.692 15.1679 39.6797 15.1802C39.6165 15.2434 39.5664 15.3184 39.5322 15.4009C39.498 15.4835 39.4804 15.572 39.4804 15.6613C39.4804 15.7507 39.498 15.8392 39.5322 15.9217C39.5664 16.0043 39.6165 16.0793 39.6797 16.1425L39.6839 16.1464L48.7338 25.1963L44.2484 29.681L35.2024 20.6353C35.1491 20.5801 35.0867 20.5345 35.018 20.5003C34.8832 20.4329 34.7299 20.4122 34.582 20.4414C34.4342 20.4706 34.3003 20.5482 34.2013 20.6618L25.1814 29.681L20.6964 25.1963L29.7472 16.1431C29.8106 16.08 29.8608 16.0049 29.8951 15.9223C29.9294 15.8397 29.947 15.7511 29.947 15.6616C29.947 15.5722 29.9294 15.4836 29.8951 15.401C29.8608 15.3184 29.8106 15.2433 29.7472 15.1802L20.6964 6.12929L25.1814 1.64454L34.23 10.6948L34.2342 10.6986C34.2974 10.7618 34.3724 10.812 34.455 10.8462C34.5376 10.8804 34.626 10.898 34.7154 10.898C34.8048 10.898 34.8932 10.8804 34.9758 10.8462C35.0584 10.812 35.1334 10.7618 35.1966 10.6986C35.2085 10.6864 35.2201 10.6741 35.2311 10.6612L44.2471 1.64551L48.7319 6.13026L39.7171 15.1456Z" fill="#122240"/>
<path d="M72.7226 23.2387C71.943 24.1474 70.9716 24.872 69.8782 25.36C68.7849 25.848 67.5969 26.0875 66.3998 26.061C64.1712 26.061 62.3736 25.3199 61.007 23.8377V31.4222H55.6465V7.51848H60.6776V9.48831H60.7881C62.1545 7.76455 64.015 6.90256 66.3698 6.90234C69.0503 6.90234 71.2052 7.87994 72.8347 9.83513C74.3589 11.665 75.121 13.9409 75.121 16.6627C75.1793 19.0787 74.3226 21.4275 72.7226 23.2387ZM68.4823 13.2578C68.0698 12.8217 67.5704 12.4772 67.0163 12.2463C66.4622 12.0155 65.8658 11.9035 65.2657 11.9177C64.6678 11.9025 64.0735 12.0141 63.5218 12.2451C62.9702 12.476 62.4736 12.8212 62.0649 13.2578C61.6449 13.6858 61.3154 14.194 61.096 14.752C60.8766 15.3101 60.7717 15.9066 60.7877 16.5061C60.7757 17.1003 60.8825 17.6909 61.1018 18.2432C61.3211 18.7956 61.6486 19.2986 62.0649 19.7227C62.9142 20.5708 64.0654 21.0471 65.2657 21.0471C66.466 21.0471 67.6172 20.5708 68.4665 19.7227C68.8868 19.3008 69.2178 18.7985 69.4397 18.2458C69.6616 17.6932 69.7699 17.1015 69.7582 16.5061C69.7744 15.9067 69.6698 15.3103 69.4506 14.7522C69.2314 14.1941 68.9021 13.6859 68.4823 13.2578Z" fill="black"/>
<path d="M91.6134 25.4462V23.5064H91.5488C91.0523 24.4077 90.254 25.1052 89.2942 25.4763C88.3513 25.8729 87.3368 26.0716 86.3139 26.0598C83.6124 26.0598 81.4207 25.1295 79.7389 23.2688C78.1198 21.4604 77.3103 19.1951 77.3105 16.4729C77.3105 13.7924 78.1357 11.5427 79.7861 9.72378C80.6033 8.8068 81.6109 8.07919 82.7383 7.59173C83.8658 7.10427 85.086 6.86869 86.3139 6.90144C87.3332 6.89069 88.3433 7.0948 89.2784 7.50046C90.2204 7.88508 91.0156 8.55948 91.5488 9.42605H91.6134V7.51822H96.9739V25.4462H91.6134ZM90.3363 13.2104C89.9153 12.7843 89.411 12.4496 88.8548 12.2274C88.2986 12.0051 87.7025 11.9 87.1038 11.9187C86.5042 11.902 85.9081 12.0145 85.3558 12.2485C84.8035 12.4825 84.3081 12.8326 83.903 13.275C83.0788 14.1582 82.6367 15.3312 82.673 16.5387C82.6611 17.1282 82.768 17.714 82.9874 18.2612C83.2069 18.8084 83.5343 19.3058 83.9501 19.7237C84.7998 20.5693 85.949 21.0453 87.1477 21.0483C88.3464 21.0512 89.4979 20.5809 90.3518 19.7396C90.7687 19.3066 91.0951 18.7947 91.3117 18.234C91.5284 17.6733 91.6309 17.075 91.6134 16.4742C91.6323 15.872 91.5289 15.2724 91.3094 14.7114C91.0898 14.1504 90.7588 13.6398 90.3363 13.2104Z" fill="black"/>
<path d="M112.111 25.4466V15.6546C112.111 14.4878 111.943 13.6205 111.606 13.0528C111.176 12.3172 110.408 11.9493 109.304 11.9491C108.137 11.9491 107.312 12.3064 106.829 13.0212C106.429 13.61 106.229 14.5034 106.23 15.7014V25.4466H100.869V7.51856H105.868V9.42639H105.946C106.976 7.74461 108.6 6.90372 110.819 6.90372C112.487 6.85191 114.117 7.40651 115.407 8.46473C116.212 9.15832 116.793 10.0745 117.079 11.0978C117.362 12.119 117.495 13.1761 117.473 14.2357V25.4466H112.111Z" fill="black"/>
<path d="M127.706 11.5868V25.447H122.345V11.5868H119.697V7.51801H122.345V1.54297H127.706V7.51898H130.292V11.5878L127.706 11.5868Z" fill="black"/>
<path d="M148.298 23.2874C146.458 25.0958 144.162 25.9999 141.408 25.9999C138.654 25.9999 136.362 25.0958 134.533 23.2874C132.683 21.479 131.758 19.2084 131.758 16.4757C131.758 13.7321 132.683 11.4563 134.533 9.6481C136.363 7.83973 138.654 6.93555 141.408 6.93555C144.161 6.93555 146.458 7.83973 148.298 9.6481C150.148 11.4565 151.073 13.7323 151.073 16.4757C151.073 19.2089 150.148 21.4795 148.298 23.2874ZM144.498 13.3058C144.107 12.8785 143.63 12.5373 143.1 12.3038C142.569 12.0704 141.996 11.9498 141.416 11.9498C140.836 11.9498 140.263 12.0704 139.732 12.3038C139.201 12.5373 138.725 12.8785 138.333 13.3058C137.53 14.1628 137.094 15.3005 137.119 16.475C137.098 17.6489 137.533 18.7852 138.333 19.6442C138.728 20.0671 139.205 20.4043 139.735 20.6349C140.265 20.8655 140.838 20.9845 141.416 20.9845C141.994 20.9845 142.566 20.8655 143.096 20.6349C143.627 20.4043 144.104 20.0671 144.498 19.6442C145.299 18.7851 145.734 17.6488 145.713 16.475C145.738 15.3005 145.302 14.1629 144.498 13.3058Z" fill="black"/>
<path d="M172.659 24.0436C172.648 24.317 172.643 24.5693 172.643 24.8006C172.612 25.3683 172.57 25.878 172.517 26.3299C172.394 27.3375 172.079 28.3119 171.587 29.1997C170.756 30.5978 169.432 31.6753 167.615 32.4322C166.001 33.0997 164.269 33.4375 162.522 33.4255C161.018 33.4504 159.524 33.1826 158.123 32.6373C156.727 32.09 155.525 31.1406 154.67 29.9095C154.082 29.082 153.703 28.1243 153.566 27.1185H159.779C160.304 28.3062 161.344 28.9002 162.901 28.9004C165.812 28.9004 167.268 27.2763 167.268 24.0281V23.4772H167.203C166.73 24.3277 165.994 25.0024 165.106 25.4009C164.227 25.8253 163.261 26.0411 162.284 26.0315C159.646 26.0315 157.47 25.1118 155.756 23.2722C154.085 21.4853 153.249 19.2621 153.249 16.6025C153.249 13.9012 154.074 11.6306 155.725 9.79079C156.542 8.86345 157.553 8.12712 158.687 7.63393C159.82 7.14074 161.048 6.90275 162.284 6.93679C163.235 6.92365 164.178 7.10052 165.059 7.45702C165.951 7.79584 166.713 8.40858 167.235 9.20726H167.3V7.51902H172.66L172.659 24.0436ZM166.116 13.2903C165.71 12.8677 165.223 12.5311 164.685 12.3007C164.146 12.0703 163.567 11.9508 162.981 11.9493C162.395 11.9478 161.815 12.0644 161.276 12.2921C160.736 12.5198 160.248 12.8539 159.84 13.2745C159.438 13.6906 159.123 14.182 158.911 14.7205C158.7 15.2591 158.598 15.834 158.61 16.4123C158.579 17.6009 159.002 18.7566 159.792 19.6448C160.176 20.0894 160.654 20.4431 161.191 20.6803C161.728 20.9176 162.312 21.0324 162.899 21.0166C163.484 21.0381 164.068 20.9386 164.613 20.7242C165.158 20.5099 165.654 20.1854 166.068 19.771C166.477 19.3471 166.796 18.8454 167.008 18.2955C167.219 17.7457 167.318 17.1589 167.298 16.5702C167.342 15.3652 166.918 14.1899 166.116 13.29V13.2903Z" fill="black"/>
<path d="M186.015 12.2968C184.637 12.3398 183.639 12.5501 183.019 12.9275C182.199 13.4321 181.789 14.3203 181.789 15.5922V25.4472H176.429V7.51914H181.459V9.42697H181.537C182.389 7.74519 183.881 6.9043 186.015 6.9043L186.015 12.2968Z" fill="black"/>
<path d="M201.641 25.4462V23.5064H201.576C201.08 24.4077 200.281 25.1052 199.322 25.4763C198.379 25.8729 197.364 26.0716 196.341 26.0598C193.64 26.0598 191.448 25.1295 189.766 23.2688C188.147 21.4604 187.338 19.1951 187.338 16.4729C187.338 13.7924 188.163 11.5427 189.813 9.72378C190.631 8.8068 191.638 8.07919 192.766 7.59173C193.893 7.10427 195.113 6.86869 196.341 6.90144C197.361 6.89069 198.371 7.0948 199.306 7.50046C200.247 7.88457 201.043 8.55826 201.576 9.42411H201.641V7.51822H207.001V25.4462H201.641ZM200.364 13.2104C199.943 12.7843 199.438 12.4496 198.882 12.2274C198.326 12.0051 197.73 11.9 197.131 11.9187C196.532 11.902 195.935 12.0145 195.383 12.2485C194.831 12.4825 194.335 12.8326 193.93 13.275C193.106 14.1582 192.664 15.3312 192.7 16.5387C192.688 17.1282 192.795 17.714 193.015 18.2612C193.234 18.8084 193.562 19.3058 193.978 19.7237C194.827 20.5693 195.976 21.0453 197.175 21.0483C198.374 21.0512 199.525 20.5809 200.379 19.7396C200.796 19.3067 201.122 18.7952 201.339 18.2347C201.555 17.6743 201.658 17.0763 201.64 16.4758C201.66 15.8734 201.556 15.2734 201.337 14.7122C201.117 14.1509 200.786 13.64 200.364 13.2104Z" fill="black"/>
<path d="M227.973 23.2387C227.193 24.1474 226.222 24.872 225.128 25.36C224.035 25.848 222.847 26.0875 221.65 26.061C219.421 26.061 217.624 25.3199 216.257 23.8377V31.4222H210.896V7.51848H215.926V9.48831H216.035C217.402 7.76455 219.262 6.90256 221.617 6.90234C224.298 6.90234 226.453 7.87994 228.082 9.83513C229.606 11.665 230.368 13.9409 230.368 16.6627C230.427 19.0783 229.572 21.4271 227.973 23.2387ZM223.731 13.2578C223.319 12.8217 222.819 12.4772 222.265 12.2463C221.711 12.0155 221.114 11.9035 220.514 11.9177C219.917 11.9025 219.322 12.0141 218.771 12.2451C218.219 12.476 217.722 12.8212 217.314 13.2578C216.893 13.6857 216.564 14.1939 216.344 14.7519C216.125 15.31 216.02 15.9066 216.035 16.5061C216.023 17.1003 216.13 17.6909 216.35 18.2432C216.569 18.7956 216.896 19.2986 217.313 19.7227C218.162 20.5708 219.313 21.0471 220.513 21.0471C221.714 21.0471 222.865 20.5708 223.714 19.7227C224.135 19.3008 224.465 18.7985 224.687 18.2458C224.909 17.6932 225.018 17.1015 225.006 16.5061C225.022 15.9068 224.918 15.3104 224.699 14.7523C224.48 14.1943 224.151 13.686 223.731 13.2578Z" fill="black"/>
<path d="M244.639 25.447V15.7022C244.639 14.5775 244.45 13.7103 244.071 13.1004C243.598 12.3327 242.826 11.9488 241.754 11.9488C240.671 11.9488 239.882 12.2852 239.389 12.958C238.968 13.5364 238.758 14.3826 238.758 15.4965V25.447H233.397V1.54297H238.758V9.1746H238.823C239.27 8.38115 239.969 7.75963 240.809 7.40854C241.642 7.05736 242.539 6.8855 243.442 6.90413C245.566 6.90413 247.19 7.56074 248.315 8.87396C249.081 9.75572 249.594 10.8295 249.797 11.9802C249.9 12.5317 249.958 13.0907 249.97 13.6516C249.98 13.9039 249.991 14.1982 250.002 14.5345V25.447H244.639Z" fill="black"/>
</g>
<defs>
<clipPath id="clip0">
<rect width="250" height="33.4244" fill="white"/>
</clipPath>
</defs>
</svg>
